{"asset":{"version":"2.0","generator":"THREE.GLTFExporter"},"scenes":[{"name":"AuxScene","nodes":[2]}],"scene":0,"nodes":[{"mesh":0},{"mesh":1},{"matrix":[0.01,0,0,0,0,0.01,0,0,0,0,0.01,0,0,0,0,1],"children":[0,1]}],"bufferViews":[{"buffer":0,"byteOffset":0,"byteLength":49536,"target":34962,"byteStride":12},{"buffer":0,"byteOffset":49536,"byteLength":49536,"target":34962,"byteStride":12},{"buffer":0,"byteOffset":99072,"byteLength":33024,"target":34962,"byteStride":8},{"buffer":0,"byteOffset":132096,"byteLength":15264,"target":34962,"byteStride":12},{"buffer":0,"byteOffset":147360,"byteLength":15264,"target":34962,"byteStride":12},{"buffer":0,"byteOffset":162624,"byteLength":10176,"target":34962,"byteStride":8}],"buffers":[{"byteLength":172800,"uri":"data:application/octet-stream;base64,"}],"accessors":[{"bufferView":0,"componentType":5126,"count":4128,"max":[215.7288818359375,1206.833984375,432.22967529296875],"min":[-164.2853240966797,-3.766530990600586,-315.6728515625],"type":"VEC3"},{"bufferView":1,"componentType":5126,"count":4128,"max":[0.992231011390686,0.9998350143432617,0.9991999864578247],"min":[-0.9999439716339111,-0.9968730211257935,-0.9997389912605286],"type":"VEC3"},{"bufferView":2,"componentType":5126,"count":4128,"max":[0.9918969869613647,0.9930830001831055],"min":[0.005677000153809786,0.005795999895781279],"type":"VEC2"},{"bufferView":3,"componentType":5126,"count":1272,"max":[560.5347290039062,1452.4891357421875,772.4218139648438],"min":[-497.23724365234375,100.64540100097656,-631.6395263671875],"type":"VEC3"},{"bufferView":4,"componentType":5126,"count":1272,"max":[1,0.9701424241065979,1],"min":[-1,-1,-1],"type":"VEC3"},{"bufferView":5,"componentType":5126,"count":1272,"max":[1,1],"min":[0,0],"type":"VEC2"}],"materials":[{"pbrMetallicRoughness":{"metallicFactor":0.5,"roughnessFactor":0.5,"baseColorTexture":{"index":0}}},{"pbrMetallicRoughness":{"metallicFactor":0.5,"roughnessFactor":0.5,"baseColorTexture":{"index":1}},"alphaMode":"MASK","alphaCutoff":0.5}],"textures":[{"sampler":0,"source":0},{"sampler":1,"source":1}],"samplers":[{"magFilter":9729,"minFilter":9987,"wrapS":33071,"wrapT":33071},{"magFilter":9729,"minFilter":9987,"wrapS":33071,"wrapT":33071}],"images":[{"mimeType":"image/png","uri":"data:image/png;base64,"},{"mimeType":"image/png","uri":"data:image/png;base64,"}],"meshes":[{"primitives":[{"mode":4,"attributes":{"POSITION":0,"NORMAL":1,"TEXCOORD_0":2},"material":0}]},{"primitives":[{"mode":4,"attributes":{"POSITION":3,"NORMAL":4,"TEXCOORD_0":5},"material":1}]}]}